<?xml version="1.0" encoding="UTF-8"?>
<svg width="140" height="40" viewBox="0 0 140 40" xmlns="http://www.w3.org/2000/svg">
  <!-- Trudify Email Logo - Handshake Icon (White) -->

  <!-- Handshake icon (from lucide-react, optimized for email) -->
  <g transform="translate(5, 5)">
    <!-- Simplified handshake icon in white -->
    <path d="M18 11.034C15.616 8.576 13.23 6.12 10.844 3.663a3 3 0 0 0-4.242 0l-.707.707a3 3 0 0 0 0 4.242c1.172 1.172 2.344 2.344 3.516 3.516m7.071 0c2.386 2.457 4.77 4.914 7.156 7.371a3 3 0 0 0 4.242 0l.707-.707a3 3 0 0 0 0-4.242c-1.172-1.172-2.344-2.344-3.516-3.516m-14.142 0 7.071 7.071"
          stroke="#ffffff"
          stroke-width="2.5"
          stroke-linecap="round"
          stroke-linejoin="round"
          fill="none"/>
  </g>

  <!-- "Trudify" Text -->
  <text x="45" y="27"
        font-family="Arial, Helvetica, sans-serif"
        font-size="20"
        font-weight="700"
        fill="#ffffff"
        text-anchor="start">Trudify</text>
</svg>
